<svg width="360" height="93" viewBox="0 0 360 93" fill="none" xmlns="http://www.w3.org/2000/svg">
<g clip-path="url(#clip0_4018_5188)">
<path d="M37.7883 0C38.2498 0.29918 39.0276 0.124849 39.6122 0.152254C54.0174 0.822935 67.1782 11.7563 71.5724 25.2658C76.0686 39.0875 71.7412 55.4571 60.4363 64.6807C60.1854 64.8855 59.8577 65.193 59.5224 65.2105V28.805C59.5224 28.6817 59.0047 27.6677 58.8838 27.4674C56.9011 24.178 51.2418 23.894 48.3771 26.171C47.8123 26.6201 47.531 27.2002 46.9851 27.5131C45.0814 24.7649 41.1874 24.0174 38.1647 25.2301L35.9653 26.4489V24.6256H28.6691V27.9699L26.0356 26.12C22.9482 24.4117 19.5339 24.3013 16.2063 25.3861V6.3079C21.4984 2.64314 27.8959 0.43697 34.355 0.140074L34.5976 0H37.7891H37.7883Z" fill="#FF0101"/>
<path d="M360 39.5214V42.5612C359.415 43.8081 358.851 44.8998 357.522 45.4784C356.764 45.8072 355.844 45.7722 355.286 46.4353C352.09 53.9399 347.359 60.499 339.295 63.1231C332.443 65.3529 326.479 63.8958 321.699 58.6735C324.296 60.7601 327.192 62.2187 330.593 62.4715C340.692 63.2236 348.28 56.4262 352.61 48.0142C353.141 46.9834 353.691 44.7986 354.727 44.3547C355.147 44.1751 355.629 44.1629 356.044 44.0007C358.254 43.139 359.234 40.7181 359.088 38.4564C359.678 38.4671 359.6 39.2139 359.999 39.5207L360 39.5214Z" fill="#0B0B06"/>
<path d="M359.848 16.1123C359.892 16.547 359.694 17.169 360 17.4803V20.8246C359.731 20.9951 359.871 21.4496 359.848 21.7366C359.66 24.0729 358.326 27.4195 356.491 28.9436C355.052 30.1395 352.927 30.479 351.506 29.092C351.203 28.7966 351.027 28.2797 350.881 28.1206C354.845 29.6173 357.484 25.2445 358.404 22.0403C359.246 19.1094 359.271 16.4808 358.73 13.505C358.689 13.2827 358.498 12.9127 358.784 12.7681C359.287 13.8917 359.721 14.8577 359.848 16.1123Z" fill="#0B0B06"/>
<path d="M39.6122 0V0.152254C39.0275 0.124849 38.2498 0.29918 37.7883 0H39.6122Z" fill="#F9E808"/>
<path d="M360 17.4803C359.694 17.169 359.892 16.547 359.848 16.1123H360V17.4803Z" fill="#F9E808"/>
<path d="M360 21.7366H359.848C359.871 21.4496 359.73 20.9951 360 20.8246V21.7366Z" fill="#F9E808"/>
<path d="M28.6699 44.386V47.7302H35.9652V32.4538C35.9652 31.7595 37.3139 30.8833 38.0126 30.8467C38.7113 30.8102 40.3724 31.5852 40.3724 32.3015V47.5018C40.3724 47.5178 40.5845 47.7302 40.6005 47.7302H47.6678V32.7575C47.6678 32.5878 48.1757 31.6407 48.352 31.4656C49.6186 30.2035 52.0203 30.9495 52.2141 32.7712L52.2073 70.0545C35.3365 77.7997 15.6391 72.0376 5.65703 56.5336C-2.17889 44.3631 -1.80713 27.8176 6.3557 15.9129C7.11139 14.8113 7.92182 13.6587 8.91167 12.7688V37.3175C8.91167 37.5863 9.22869 38.8218 9.32449 39.1842C11.2099 46.2891 19.4488 49.8504 25.9368 46.2884L28.6699 44.3852V44.386Z" fill="#FF0101"/>
<path d="M351.336 72.2013C351.862 72.1876 352.42 72.2325 352.93 72.3589C353.062 72.3916 353.272 72.2957 353.158 72.5804C352.753 73.586 351.306 74.9373 350.727 75.9262C350.249 76.2071 348.303 75.8097 348.062 75.9871C347.757 76.2132 346.305 78.6691 346.06 79.1631C345.633 80.0256 344.539 82.5249 345.328 83.3029C346.321 84.2827 349.825 81.5939 350.653 80.8684C351.034 80.707 350.894 81.823 350.848 81.976C350.743 82.33 348.157 84.521 347.675 84.8818C346.801 85.5357 345.183 86.6845 344.117 86.7949C340.35 87.1846 341.794 83.0251 342.824 81.0206C342.716 80.9133 341.752 81.7256 341.606 81.8527C340.108 83.1636 336.971 86.7926 334.807 85.9194C334.383 85.7481 333.935 85.031 333.866 84.5811C333.464 81.9783 335.226 79.8186 336.895 78.0524C336.956 77.7167 336.761 77.8263 336.533 77.8416C336.211 77.8636 333.632 78.3402 333.501 78.4209C333.406 78.4795 332.54 79.932 332.262 80.2601C331.488 81.1729 329.455 82.9604 328.354 83.3433C327.672 83.5808 326.674 83.4948 326.259 83.6805C325.946 83.8206 324.838 85.0546 324.21 85.4307C321.358 87.1352 318.886 85.4284 318.505 82.3856C318.332 82.3627 318.21 82.3871 318.054 82.4655C316.141 83.4278 314.369 85.9392 311.855 86.2978C310.105 86.5475 309.362 85.6454 308.026 85.4923C307.298 85.4094 306.508 85.7733 305.742 85.1216C304.955 86.4363 302.736 92.8477 301.232 92.9939C299.953 93.118 300.489 90.4787 300.717 89.7517C301.452 87.4145 303.436 85.3447 304.798 83.3448L309.234 75.8501C308.543 75.9094 308.362 76.7529 308.019 77.142C305.697 79.7752 299.896 85.8418 296.39 86.1836C293.967 86.4203 291.535 84.7196 291.299 82.2341C289.758 83.3204 288.349 85.0188 286.69 85.9072C285.712 86.431 284.062 86.7591 283.734 85.318C283.218 83.0563 285.724 80.6636 286.588 78.7383C286.423 78.5739 284.544 80.1231 284.307 80.3317C282.7 81.7461 281.578 83.5785 280.135 84.9754C278.692 86.3724 277.911 84.8788 277.538 83.4575C277.468 83.1895 277.579 82.3924 277.243 82.5394C275.701 83.7665 272.72 87.0826 270.591 86.6007C268.783 86.1912 270.283 82.2623 270.781 81.1698C269.459 82.0971 266.172 86.4569 264.549 86.1196C263.455 85.8928 262.146 83.4833 262.118 82.3863C261.887 82.3239 261.866 82.4465 261.737 82.5356C261.128 82.9573 260.379 83.8678 259.759 84.3573C258.51 85.3439 256.34 87.0857 255.063 85.2632C253.479 83.0015 256.374 79.4768 257.864 77.8271C257.047 78.0715 255.187 78.0311 254.52 78.3577C254.32 78.4559 253.518 79.7782 253.23 80.1071C252.812 80.5837 251.961 81.4865 251.482 81.8542C251.329 81.9715 251.288 82.1488 251.025 82.0803C251.052 81.6875 250.933 81.2452 251.104 80.8676C251.256 80.5296 252.607 79.6321 252.326 79.1898C252.205 78.9979 251.635 78.886 251.513 78.4772C251.105 77.1069 252.82 74.9678 253.841 74.1798C254.369 73.7726 255.062 73.2701 255.726 73.58C255.827 74.0931 255.477 74.5041 255.281 74.935C256.365 74.9267 259.92 74.0664 260.688 74.6206C261.191 74.983 261.324 76.3099 261.093 76.874C260.893 77.3612 259.525 78.4376 259.085 78.969C258.14 80.1094 255.859 83.6265 259.165 82.6962C259.65 82.5592 261.733 81.3761 262.016 81.0282C262.228 80.7679 262.374 79.8978 262.8 79.3413C264.565 77.0377 271.008 73.0227 273.906 73.2572C275.351 73.3744 276.255 75.4984 274.278 75.5463C274.45 76 274.94 76.7354 275.012 77.1808C275.241 78.5815 272.167 80.0348 272.61 82.3064C272.961 84.103 276.799 81.9098 277.381 81.0031C278.504 79.2537 279.231 77.3475 281.042 76.0008C281.882 75.3766 284.069 74.9624 283.859 76.3723C283.807 76.7172 280.941 79.5521 280.447 80.4215C280.298 80.6841 279.669 81.9456 280.431 81.7758C280.668 81.7233 283.343 78.8114 283.852 78.3547C284.429 77.8355 285.143 77.2402 285.76 76.7674C286.533 76.1744 288.829 74.4646 289.706 74.4653C290.7 74.4668 291 76.0267 290.841 76.8336C290.756 77.2668 288.98 78.921 288.57 79.425C288.149 79.9419 287.433 80.7915 287.171 81.3701C285.475 85.1094 290.708 81.4013 291.607 80.6385C292.717 79.6968 297.017 75.6963 297.686 74.7097C298.284 73.8274 298.201 72.3094 299.874 72.3627C301.004 72.3985 300.608 73.0478 300.763 73.7581C301.206 75.7892 302.119 77.0011 301.255 79.1913C300.509 81.0792 298.545 82.3079 296.925 83.3737C300.371 83.8602 303.505 80.6057 305.665 78.2831C307.346 76.4766 310.977 71.2375 312.93 70.5006C313.52 70.2783 314.365 70.0408 314.945 70.3659C315.591 71.2725 313.076 73.2222 312.575 73.7931C311.293 75.2532 310.153 77.03 309.236 78.7353L313.504 75.7861C314.132 75.2091 317.089 74.1144 317.412 75.1954C317.926 76.9159 315.877 79.5095 314.768 80.6979C314.02 81.4995 312.748 82.3567 312.044 83.1423C311.465 83.7894 313.095 83.6318 313.414 83.5998C314.422 83.5001 317.822 81.74 318.339 80.9255C318.575 80.5532 318.722 79.6656 318.99 79.1441C319.762 77.6383 322.014 75.6179 323.52 74.8581C324.66 74.2834 327.12 73.465 328.167 74.4722C328.728 75.0127 328.083 75.4512 328.095 75.6232C328.107 75.7953 328.68 75.9422 328.836 76.0838C329.425 76.6174 329.095 78.1674 328.919 78.8906C328.763 79.5331 327.776 81.3358 327.777 81.5573C327.788 82.7426 330.171 80.9635 330.517 80.6408C330.663 80.5045 331.554 79.492 331.573 79.4128C331.661 79.0246 330.506 79.0398 330.512 77.9002C330.518 76.6426 333.155 73.4543 334.42 73.4467C335.448 73.4406 334.335 74.814 334.467 74.9358C335.452 74.8916 339.244 74.0862 339.863 74.6313C340.071 74.814 340.401 75.9323 340.398 76.2338C340.386 77.1846 338.724 78.3889 338.118 79.1213C337.468 79.9069 335.334 82.9215 337.576 82.8492C340.147 82.7662 344.422 77.99 345.713 75.8501C344.595 75.6407 343.494 75.9232 342.37 75.9993C342.79 74.4295 344.029 72.6345 345.676 72.2386C346.335 72.0803 348.521 72.1198 348.756 71.9752C348.826 71.9318 349.461 70.8569 349.67 70.6087C350.203 69.9769 351.002 69.259 351.864 69.157C354.928 68.7954 351.932 71.22 351.337 72.1983L351.336 72.2013ZM273.215 76.0038C271.066 77.0141 264.952 79.2202 264.435 81.737C264.323 82.2836 264.391 83.3844 265.088 83.4537C266.351 83.5793 269.527 80.4657 270.406 79.5011L273.215 76.0038ZM297.988 76.4598L293.127 80.5662C293.115 80.7283 293.048 80.7808 293.22 80.8669C293.569 81.0419 293.945 80.9932 294.418 81.3221C294.779 81.5733 295.597 82.7875 295.783 82.8012C298.784 81.654 298.389 79.1136 297.988 76.4598H297.988ZM326.411 76.6129C324.847 77.3087 321.832 78.9378 321.168 80.5646C319.568 84.4875 322.535 84.5019 324.971 82.5462C324.186 80.3439 325.351 78.4529 326.411 76.6129ZM307.565 82.6901C308.176 82.4168 310.331 83.0441 310.599 82.9238C310.74 82.8606 312.296 81.2696 312.506 81.0206C312.973 80.4672 315.102 77.7791 313.534 77.5515C312.349 77.3795 309.641 79.9724 308.855 80.8653C308.682 81.0617 307.411 82.5546 307.566 82.6909L307.565 82.6901Z" fill="#080707"/>
<path d="M268.048 20.8246C273.511 36.4421 265.203 55.7175 250.112 62.3961L246.922 63.538H249.582C250.082 63.538 251.545 63.7877 252.059 63.9483C252.897 64.2102 253.252 64.4782 253.638 65.257C254.069 66.1248 254.701 67.8186 254.489 68.7504C254.333 69.4356 252.17 71.8831 251.6 72.7007C250.183 74.7325 248.747 76.9349 247.467 79.055C247.152 79.5765 245.444 82.3285 245.419 82.6421C245.391 82.9862 245.84 82.9071 245.872 83.0898C245.969 83.6561 243.668 86.8817 243.109 87.3125C241.831 88.2961 240.393 87.834 240.552 86.1295C240.771 83.7772 243.992 79.1753 245.43 77.1701C247.538 74.2293 249.892 71.4507 252.242 68.7078C247.869 68.2244 243.462 68.7147 239.199 69.7218C238.634 69.855 235.249 70.7442 235.068 70.9886C234.544 71.6958 238.117 71.2756 237.955 72.2028H233.168C232.514 72.2028 232.461 71.2604 232.503 70.7777C232.958 65.4831 236.46 64.871 240.878 64.2559C241.028 64.2346 241.484 64.211 241.451 63.9963C237.828 63.7382 235.192 62.7098 232.484 60.3468C232.212 60.1785 232.345 59.9136 232.332 59.8908C241.604 66.0175 252.867 60.4389 259.464 53.053C267.033 44.5785 270.616 31.9605 267.746 20.8253H268.05L268.048 20.8246Z" fill="#080707"/>
<path d="M320.484 12.1606C320.572 13.9122 319.614 15.9129 318.277 17.0213C317.402 17.7468 316.229 18.0482 315.554 19.0105C314.078 21.1124 312.969 26.831 312.35 29.4871C310.617 36.9293 309.346 44.5923 307.491 51.988C306.862 54.4956 305.288 60.9634 302.805 62.0467C302.206 62.3086 301.502 62.3976 300.877 62.17C300.072 61.8769 299.452 60.7289 298.99 60.0293C294.541 53.2799 290.937 45.7973 286.287 39.2177C286.255 39.1735 286.306 38.8911 286.144 38.6833C285.99 38.4869 285.409 37.9014 285.216 37.7804C283.853 36.924 283.436 38.1184 282.939 39.1065C282.204 40.5644 281.54 43.649 281.19 45.4449C280.794 47.4721 279.881 51.28 281.265 52.9472C281.383 53.0888 281.565 53.0378 281.575 53.0507C282.285 53.8607 282.918 54.4469 282.943 55.6345C282.967 56.7627 282.273 58.4748 281.572 59.3548C278.857 62.7585 271.627 62.7943 267.896 61.2588C266.433 59.6563 265.731 59.4112 266.141 56.8426C266.642 53.6971 269.963 53.2905 271.244 50.0894C272.797 46.21 273.912 40.4981 274.814 36.3309C275.993 30.8772 277.269 25.157 277.136 19.5647C275.421 16.9497 273.219 16.3179 274.662 12.7711C276.314 8.71428 282.754 8.3778 286.512 8.66556C288.618 8.82695 289.464 9.37278 290.665 11.0483C294.529 16.4366 297.534 23.0376 301.451 28.3817C302.05 29.1978 303 30.747 303.983 29.478C305.041 28.1122 306.35 21.2699 306.179 19.5479C305.97 17.4232 303.681 16.933 303.629 14.8029C303.481 8.82847 310.245 8.40292 314.63 8.6648C316.954 8.80335 320.334 9.1916 320.484 12.1598V12.1606ZM305.84 17.0768C306.128 17.4088 306.544 18.2248 306.617 18.6572C306.97 20.7606 305.644 28.8758 303.995 30.2514C302.808 31.2426 301.952 30.1692 301.207 29.2351C297.18 24.1856 294.132 16.9238 290.242 11.6246C289.22 10.2018 288.481 9.56081 286.672 9.41922C283.111 9.13983 276.286 9.21824 274.965 13.3778C273.882 16.7876 276.79 16.5592 277.517 18.8795C278.202 21.0667 277.354 25.7706 276.968 28.1495C275.942 34.478 274.055 44.2946 271.766 50.1556C270.502 53.3933 268.891 53.0926 267.361 55.1739C265.779 57.3253 266.535 59.871 268.964 60.8751C272.624 62.3893 281.353 61.7909 282.266 56.8571C282.816 53.8874 280.548 54.061 280.123 51.9949C279.616 49.5299 281.595 39.1004 283.398 37.3168C284.844 35.8864 286.095 37.5246 286.899 38.681C291.705 45.5971 295.458 53.7496 300.273 60.7228C301.164 61.9409 302.529 61.8137 303.543 60.8081C305.186 59.1775 306.457 54.1538 307.034 51.8358C308.948 44.153 310.216 36.283 312.046 28.5759C312.696 25.8376 313.955 19.4246 316.089 17.7224C317.426 16.6559 318.632 16.5082 319.449 14.6986C321.155 10.9182 318.365 9.62704 315.094 9.41846C311.265 9.17485 304.524 8.96398 304.222 14.2168C304.112 16.1131 304.916 16.0111 305.84 17.0768Z" fill="#F9E808"/>
<path d="M223.212 12.3128C224.387 15.9897 224.116 20.2217 222.583 23.7677C221.439 26.4146 218.82 29.6843 215.613 27.9691C213.546 26.8638 212.944 22.8922 211.509 20.8246C208.288 16.1823 203.181 18.3969 200.351 22.2055C196.068 27.9699 193.888 41.6271 197.526 47.8817C198.135 48.93 198.617 49.7552 199.76 50.435C203.341 52.5658 205.922 49.1287 206.037 45.7532C206.038 45.7159 206.191 45.6535 206.133 45.3033C205.86 43.6528 204.379 44.4613 203.149 44.0814C200.794 43.3544 201.547 39.8465 202.516 38.2037C205.334 33.4221 216.738 33.2409 221.276 35.1494C223.189 35.9541 223.339 36.7428 224.124 38.4572C223.865 39.2961 223.881 40.1974 223.588 41.0379C223.235 42.0496 222.405 43.2433 221.436 43.7503C220.67 44.1522 219.471 44.1705 218.953 44.7628C216.772 49.5816 214.317 54.1477 210.142 57.5361C203.978 62.5385 194.506 64.7111 187.832 59.584L186.734 58.978C176.18 47.9182 180.4 30.0474 189.02 19.0828C194.557 12.0403 204.122 6.21045 213.363 9.16419C214.261 9.45119 215.961 10.4446 216.764 10.4804C217.594 10.5177 218.866 9.59963 219.675 9.46032C221.949 9.06827 222.613 10.4401 223.211 12.312L223.212 12.3128ZM206.767 9.16571C193.553 10.1698 183.707 24.5053 181.608 36.5989C179.452 49.0236 184.004 62.7151 198.824 61.7209C206.123 61.2314 212.659 55.649 216.094 49.504C216.841 48.1695 218.138 44.4575 219.252 43.8462C219.841 43.5242 220.5 43.5021 221.084 43.2456C223.665 42.1105 224.411 37.6357 221.674 36.1185C217.677 33.9025 206.647 34.1857 203.45 37.7697C202.445 38.8949 201.696 40.9511 202.313 42.4089C203.021 44.0807 204.569 43.1352 205.768 43.6658C207.668 44.5078 206.12 48.6163 205.188 49.8443C202.611 53.2372 199.026 51.8578 197.143 48.6437C192.985 41.5502 195.747 23.7578 202.886 18.9648C206.053 16.8386 209.708 17.035 211.999 20.2567C213.837 22.8404 214.232 29.2846 218.909 27.3883C223.514 25.5209 224.239 15.6495 222.375 11.7038C220.754 8.27121 218.661 11.2638 216.451 11.1001C215.437 11.0247 213.704 10.0023 212.536 9.68794C210.617 9.17104 208.756 9.01345 206.766 9.16495L206.767 9.16571Z" fill="#F9E808"/>
<path d="M358.784 12.7688C358.497 12.9127 358.688 13.2834 358.729 13.5057C359.271 16.4815 359.245 19.1102 358.403 22.0411C357.483 25.2461 354.845 29.618 350.88 28.1214C350.3 27.4926 349.708 27.1744 349.235 26.3469C348.421 24.9218 347.788 21.7929 346.624 20.8253C346.602 20.3838 346.16 19.9963 345.845 19.7048C343.753 17.7673 340.873 17.8914 338.52 19.3325C331.452 23.6618 328.893 40.9694 332.641 47.731C333.27 48.8653 333.856 49.8488 335.086 50.5302C338.524 52.4364 341.33 48.9916 341.305 45.7547C341.287 43.5889 339.841 44.4979 338.417 44.083C335.72 43.2966 336.84 39.2626 338.117 37.6266C341.026 33.901 349.671 33.5531 353.925 34.4255C356.256 34.9035 358.908 35.693 359.087 38.4587C359.233 40.7204 358.253 43.142 356.044 44.003C355.628 44.1652 355.146 44.1774 354.726 44.357C353.69 44.8008 353.14 46.9857 352.61 48.0165C348.279 56.4277 340.691 63.2251 330.592 62.4738C327.191 62.2203 324.296 60.7624 321.698 58.6758C311.969 48.0446 315.292 31.6719 322.942 20.7781C328.503 12.8609 338.756 5.82906 348.83 9.27077C349.644 9.54863 351.154 10.4469 351.879 10.4797C353.393 10.5474 355.208 8.5742 356.884 9.72905C357.657 10.2619 358.388 11.8857 358.784 12.7696V12.7688ZM341.882 9.16571C323.875 10.5725 311.221 36.8844 318.225 52.648C320.38 57.4996 324.799 61.1004 330.154 61.6942C339.2 62.6976 347.158 56.9789 351.363 49.3517C352.047 48.1101 353.107 45.0711 353.856 44.2444C354.433 43.6064 355.186 43.6711 355.893 43.3932C358.677 42.3001 359.805 38.0583 357.099 36.2662C353.325 33.7677 342.002 34.2778 338.739 37.6365C337.622 38.7868 336.595 41.8753 337.974 43.0804C339.133 44.0929 341.898 42.4706 341.912 45.524C341.933 50.2721 337.037 54.2954 333.172 49.8587C327.747 43.6308 330.866 25.9814 336.443 20.2925C339.741 16.9284 344.743 16.2752 347.449 20.6838C349.044 23.2835 349.616 29.2229 354.071 27.4347C358.65 25.5978 359.354 16.0552 357.723 12.0799C356.052 8.00706 354.075 11.3095 351.565 11.0963C350.735 11.0255 349.652 10.3145 348.832 10.0267C346.532 9.22052 344.319 8.97387 341.882 9.16419V9.16571Z" fill="#F9E808"/>
<path d="M169.257 14.2883C168.958 14.4421 169.157 14.793 169.212 15.0153C172.191 26.9696 172.822 38.0742 174.749 50.0643C174.857 50.7327 175.147 52.8231 175.557 53.2152C175.681 53.3339 175.865 53.3058 175.944 53.3537C177.179 54.1036 178.487 54.096 178.376 56.0897C178.308 57.3101 177.315 59.1508 176.401 59.9677C173.131 62.8925 163.966 62.4882 159.759 62.0162C158.657 61.8929 157.574 61.6189 156.49 61.4103C156.143 61.0182 155.663 60.7708 155.36 60.3361C154.506 59.1128 154.694 56.9995 155.512 55.7959C156.793 53.9102 159.633 54.3662 159.378 51.3782C159.308 50.5629 158.962 50.1495 158.198 49.8976C156.387 49.3007 149.301 49.1104 147.517 49.6243C146.146 50.0186 144.855 52.0436 145.091 53.4245C145.217 54.1584 146.125 54.0686 146.46 54.2665C147.319 54.7758 147.873 55.6885 147.827 56.6988C147.718 59.1135 145.695 60.9177 143.539 61.6059C141.053 62.3992 134.741 62.4996 132.324 61.5625C130.212 60.7442 130.33 58.2624 131.131 56.4925C131.921 54.7469 133.288 54.6182 134.744 53.7222C137.1 52.2704 138.719 48.9909 140.102 46.6165C143.853 40.1723 148.119 32.7484 151.304 26.0515C151.854 24.8943 152.467 23.537 152.916 22.3433C154.727 17.5283 154.657 10.9928 160.292 8.74397C165.299 6.74639 167.5 10.3792 169.257 14.2891V14.2883ZM161.621 9.00737C155.837 9.79376 155.282 16.818 153.909 21.0553C152.993 23.8811 151.495 26.7983 150.132 29.4391C147.297 34.9332 144.098 40.6405 141.013 46.0082C139.515 48.6133 137.597 52.5788 135.079 54.2102C134.017 54.8983 132.224 55.3772 131.63 56.5374C130.982 57.8049 130.8 59.887 132.216 60.6825C134.074 61.727 139.49 61.6912 141.629 61.3692C144.129 60.9931 147.538 59.5703 147.223 56.4681C147.054 54.807 145.079 54.9242 144.713 54.112C144.23 53.0401 145.596 50.1884 146.47 49.4895C147.792 48.4321 152.1 48.5585 153.836 48.6354C155.054 48.6894 157.597 48.844 158.662 49.2809C160.2 49.9105 160.216 51.8571 159.59 53.187C158.672 55.1412 155.872 54.823 155.462 57.2667C154.938 60.3886 156.725 60.8743 159.323 61.2367C163.224 61.7818 171.794 62.0612 175.189 60.1237C176.476 59.3891 177.679 57.8414 177.77 56.3128C177.905 54.0092 176.211 54.8184 175.253 53.8173C174.754 53.2951 174.602 52.3991 174.469 51.714C172.195 39.9454 172.38 27.1272 168.841 15.5414C167.732 11.9139 166.089 8.4014 161.621 9.00889V9.00737Z" fill="#F9E808"/>
<path d="M135.516 14.8966C136.693 19.5266 134.898 25.6244 131.863 29.2564C131.217 30.0306 129.127 31.6126 129.177 32.5817C129.219 33.3879 129.925 33.5272 130.348 33.8971C132.109 35.4364 132.747 36.6613 133.692 38.7617L134.007 41.7238C132.986 53.4847 125.927 62.1259 113.547 61.8724C108.459 61.7681 103.669 61.3798 98.5006 61.5557C96.9747 61.6074 94.3549 62.2164 92.9591 61.714C91.0212 61.0167 90.9383 58.0196 91.7161 56.4422C92.3577 55.1412 93.6228 54.5931 94.5594 53.662C96.53 51.7025 98.5371 42.9418 99.3308 39.8891C100.747 34.4369 102.264 28.5111 103.246 22.9805C103.526 21.4054 104.033 19.5814 103.446 18.0886C103.286 17.6828 103.265 17.2154 102.686 17.1766C102.338 16.614 102.124 16.7213 101.707 16.2547C100.438 14.8341 101.044 12.6676 102.043 11.2897C104.22 8.28263 108.297 9.49534 111.418 9.58289C114.714 9.67576 118.025 9.32786 121.297 9.2662C126.427 9.16952 133.907 8.57116 135.514 14.8966H135.516ZM123.63 9.92546C117.448 9.96961 111.258 10.4401 105.056 10.0457C103.463 10.45 102.151 11.4343 101.697 13.0695C100.841 16.1549 103.593 15.8474 104.103 17.9652C104.711 20.4942 102.933 27 102.309 29.7954C101.188 34.8244 99.9253 40.0444 98.5074 44.9934C97.8483 47.2948 96.7216 51.8967 95.3029 53.6453C93.803 55.4944 90.8137 56.3448 91.9358 59.622C92.7439 61.982 95.366 61.0509 97.1412 60.9558C100.674 60.767 104.386 60.7175 107.937 60.7959C113.379 60.917 118.098 62.0459 123.208 59.3609C130.389 55.5881 137.241 42.3747 131.034 35.4151C130.348 34.6462 128.866 33.9893 128.709 33.0217C128.435 31.3324 130.527 30.0208 131.49 28.8819C134.717 25.0656 137.223 16.8104 133.618 12.6135C131.231 9.83411 126.999 9.89957 123.63 9.92394V9.92546Z" fill="#F9E808"/>
<path d="M92.9598 61.7148C94.3557 62.2172 96.9755 61.6082 98.5013 61.5564C103.669 61.3806 108.459 61.7688 113.548 61.8731C125.927 62.1266 132.988 53.4847 134.007 41.7245L133.693 38.7624C136.34 44.6433 134.334 51.1506 130.627 56.1415C125.976 62.403 121.11 63.6012 113.548 63.3941C109.294 63.2777 105.061 62.9138 100.781 63.0775C99.165 63.1391 95.975 63.774 94.5997 63.3439C93.8851 63.1201 93.1012 62.4837 92.9606 61.7155L92.9598 61.7148Z" fill="#0B0B06"/>
<path d="M230.811 58.6743C228.435 55.9969 227.02 53.7313 226.142 50.1945C221.852 32.8946 235.189 6.87353 255.202 8.51483C261.787 9.05457 264.929 13.8727 267.439 19.1528C267.023 19.5944 267.634 20.4006 267.743 20.8246C270.614 31.959 267.032 44.577 259.462 53.0523C252.864 60.4389 241.603 66.0167 232.33 59.89C232.078 59.4416 231.273 58.8684 230.81 58.6743H230.811ZM251.603 9.16572C234.032 10.5406 222.798 33.9664 226.63 49.7072C228.932 59.16 236.787 63.618 246.196 61.0624C256.491 58.267 264.53 47.7569 267.093 37.7294C270.104 25.951 267.332 7.93398 251.603 9.16495V9.16572Z" fill="#F9E808"/>
<path d="M300.877 62.1708C301.502 62.3984 302.205 62.3093 302.805 62.0475C305.287 60.9642 306.861 54.4964 307.49 51.9888C309.345 44.593 310.616 36.9301 312.35 29.4879C312.969 26.8318 314.078 21.1131 315.553 19.0112C316.229 18.049 317.401 17.7483 318.276 17.022C319.613 15.9136 320.571 13.913 320.483 12.1613C322.231 13.6024 321.307 16.9307 319.881 18.323C319.053 19.1308 317.66 19.5091 316.923 20.3808C315.525 22.0335 314.407 26.962 313.869 29.1834C312.004 36.8844 310.69 44.7354 308.857 52.444C308.241 55.0339 306.588 62.6527 303.96 63.6583C302.507 64.214 301.394 63.5555 300.876 62.17L300.877 62.1708Z" fill="#0B0B06"/>
<path d="M186.735 58.978L187.834 59.584C194.508 64.7111 203.98 62.5385 210.144 57.5362C214.319 54.1477 216.772 49.5816 218.954 44.7628C219.473 44.1705 220.672 44.1522 221.438 43.7503C222.406 43.2425 223.236 42.0488 223.589 41.0379C223.883 40.1974 223.866 39.2969 224.125 38.4572C224.304 38.8485 224.645 39.1256 224.808 39.6737C225.362 41.538 224.455 44.3258 222.686 45.3025C221.264 46.0874 220.542 45.4342 219.584 47.2164C218.87 48.5455 218.373 50.1008 217.616 51.4802C211.567 62.4936 196.709 69.4295 186.737 58.9788L186.735 58.978Z" fill="#0B0B06"/>
<path d="M19.6624 31.9582C25.5604 31.0165 26.4392 39.7216 21.1334 40.4205C15.3776 41.178 14.4212 32.7948 19.6624 31.9582Z" fill="#FF0101"/>
<path d="M211.509 20.8246C209.069 19.2556 206.196 19.7367 203.922 21.3697C198.525 25.2453 196.41 36.385 196.768 42.6365C196.869 44.4035 197.347 46.1285 197.526 47.8825C193.888 41.6279 196.069 27.9706 200.352 22.2063C203.181 18.3977 208.289 16.1831 211.51 20.8253L211.509 20.8246Z" fill="#0B0B06"/>
<path d="M156.49 61.4103C157.574 61.6189 158.658 61.8929 159.76 62.0162C163.967 62.4882 173.132 62.8917 176.402 59.9677C177.316 59.1508 178.308 57.3101 178.377 56.0897C180.574 57.7166 178.532 61.0898 176.692 62.2332C173.276 64.3571 164.226 64.0968 160.256 63.4962C159.241 63.3424 157.779 63.0508 157.024 62.3207C156.712 62.0193 156.62 61.5564 156.49 61.4095V61.4103Z" fill="#0B0B06"/>
<path d="M132.324 61.5625C134.74 62.4989 141.053 62.3992 143.539 61.6059C145.694 60.9177 147.718 59.1135 147.827 56.6988C149.201 57.5004 148.855 59.4492 148.212 60.6558C146.347 64.1531 139.471 64.1341 136.066 63.6735C134.841 63.5076 132.363 63.1186 132.325 61.5633L132.324 61.5625Z" fill="#0B0B06"/>
<path d="M267.896 61.2588C271.626 62.7943 278.858 62.7585 281.572 59.3548C282.273 58.4748 282.967 56.7627 282.943 55.6345C284.734 56.9957 283.656 60.1389 282.333 61.4849C279.691 64.176 271.287 64.8208 268.519 62.2317C268.216 61.9485 268.036 61.4118 267.896 61.258V61.2588Z" fill="#0B0B06"/>
<path d="M130.348 33.8971C129.925 33.5264 129.219 33.3871 129.177 32.5817C129.127 31.6126 131.217 30.0314 131.864 29.2564C134.898 25.6244 136.692 19.5266 135.516 14.8966C135.913 15.2171 136.223 15.9052 136.393 16.375C138.099 21.0697 135.756 27.7072 132.624 31.3849C131.893 32.2421 130.903 32.8953 130.348 33.8971Z" fill="#0B0B06"/>
<path d="M215.613 27.9691C218.82 29.6835 221.439 26.4138 222.583 23.7677C224.116 20.2217 224.387 15.9897 223.212 12.3128C223.485 12.4849 223.711 12.8388 223.847 13.122C225.924 17.4521 225.083 26.2783 220.923 29.2519C219.132 30.5316 216.402 30.1669 215.613 27.9691Z" fill="#0B0B06"/>
<path d="M169.256 14.2883C170.981 18.1274 171.796 22.692 172.552 27.1804C174.013 35.8483 174.834 44.6364 175.944 53.3537C175.865 53.3058 175.68 53.3332 175.557 53.2152C175.147 52.8231 174.857 50.7327 174.749 50.0643C172.822 38.0742 172.191 26.9696 169.212 15.0153C169.156 14.793 168.958 14.4428 169.256 14.2883Z" fill="#0B0B06"/>
<path d="M146.459 54.2665C146.124 54.0686 145.216 54.1576 145.09 53.4245C144.854 52.0436 146.145 50.0186 147.516 49.6243C149.301 49.1112 156.386 49.3007 158.197 49.8976C158.961 50.1495 159.307 50.5629 159.377 51.3782C156.571 50.9968 153.466 50.7235 150.632 50.9161C148.235 51.0791 146.994 51.8297 146.459 54.2665Z" fill="#0B0B06"/>
<path d="M286.287 39.2177C285.747 38.9002 285.347 39.0837 284.914 39.4415C283.529 40.5895 282.414 46.2541 282.075 48.1542C281.786 49.7757 281.464 51.3927 281.575 53.05C281.564 53.0378 281.382 53.088 281.265 52.9464C279.88 51.2793 280.793 47.4706 281.189 45.4441C281.54 43.6483 282.203 40.5636 282.938 39.1058C283.436 38.1184 283.852 36.9232 285.216 37.7796C285.409 37.9007 285.989 38.4861 286.143 38.6825C286.306 38.8903 286.255 39.1728 286.286 39.2169L286.287 39.2177Z" fill="#0B0B06"/>
<path d="M206.037 45.754C204.683 45.9199 203.45 45.5461 203.15 44.0822C204.38 44.4621 205.86 43.6536 206.134 45.304C206.192 45.6542 206.039 45.7167 206.037 45.754Z" fill="#0B0B06"/>
<path d="M268.048 20.8246H267.744C267.635 20.4006 267.024 19.5944 267.44 19.1528C267.768 19.841 267.827 20.1935 268.048 20.8246Z" fill="#0B0B06"/>
<path d="M232.331 59.89C232.344 59.9128 232.211 60.1778 232.483 60.346C231.737 59.6951 231.488 59.4363 230.811 58.6743C231.274 58.8684 232.079 59.4416 232.331 59.89Z" fill="#0B0B06"/>
<path d="M103.447 18.0886C102.967 17.8952 102.889 17.5039 102.687 17.1766C103.266 17.2154 103.287 17.6828 103.447 18.0886Z" fill="#0B0B06"/>
<path d="M332.642 47.7302C328.894 40.9694 331.453 23.6611 338.521 19.3317C340.874 17.8899 343.753 17.7666 345.846 19.704C346.16 19.9956 346.603 20.3838 346.625 20.8246C344.795 19.3036 341.708 19.7634 339.798 20.9129C333.542 24.6743 331.352 37.1691 332.036 43.8523C332.169 45.1518 332.546 46.4262 332.642 47.7302Z" fill="#0B0B06"/>
<path d="M341.305 45.754C340.003 45.923 338.597 45.5575 338.418 44.0822C339.842 44.4979 341.288 43.5881 341.305 45.754Z" fill="#0B0B06"/>
<path d="M305.84 17.0768C304.917 16.0111 304.113 16.1131 304.222 14.2168C304.524 8.96398 311.265 9.17485 315.094 9.41846C318.365 9.62628 321.155 10.9174 319.449 14.6986C318.632 16.5082 317.426 16.6566 316.089 17.7224C313.955 19.4246 312.696 25.8376 312.046 28.5759C310.216 36.2837 308.948 44.153 307.034 51.8358C306.457 54.1538 305.185 59.1782 303.543 60.8081C302.53 61.8137 301.164 61.9409 300.273 60.7228C295.458 53.7496 291.705 45.5979 286.899 38.681C286.095 37.5246 284.845 35.8864 283.399 37.3168C281.595 39.1004 279.616 49.5299 280.123 51.9949C280.547 54.061 282.816 53.8881 282.267 56.8571C281.353 61.7909 272.624 62.3893 268.964 60.8751C266.535 59.871 265.779 57.3253 267.361 55.1739C268.891 53.0926 270.502 53.3926 271.766 50.1556C274.055 44.2946 275.941 34.478 276.968 28.1495C277.355 25.7706 278.203 21.0667 277.517 18.8795C276.79 16.5592 273.882 16.7876 274.965 13.3778C276.286 9.21824 283.111 9.13907 286.672 9.41922C288.481 9.56157 289.22 10.2018 290.242 11.6246C294.132 16.9238 297.18 24.1856 301.207 29.2351C301.952 30.1692 302.808 31.2418 303.995 30.2514C305.644 28.8758 306.971 20.7599 306.617 18.6572C306.544 18.2256 306.129 17.4095 305.84 17.0768Z" fill="#FF0100"/>
<path d="M206.767 9.16571C208.757 9.01422 210.617 9.1718 212.537 9.68871C213.705 10.0031 215.438 11.0263 216.452 11.1009C218.662 11.2645 220.755 8.27198 222.376 11.7046C224.24 15.651 223.514 25.5216 218.909 27.389C214.234 29.2854 213.839 22.8412 212 20.2574C209.709 17.0357 206.054 16.8393 202.887 18.9656C195.748 23.7578 192.986 41.551 197.143 48.6445C199.027 51.8578 202.612 53.2373 205.188 49.845C206.12 48.6171 207.669 44.5085 205.768 43.6665C204.57 43.1359 203.022 44.0814 202.314 42.4097C201.697 40.9519 202.446 38.8957 203.45 37.7705C206.648 34.1857 217.678 33.9032 221.674 36.1193C224.411 37.6365 223.666 42.1113 221.084 43.2463C220.501 43.5029 219.841 43.5242 219.253 43.847C218.138 44.4583 216.841 48.1702 216.095 49.5047C212.659 55.6497 206.124 61.2321 198.825 61.7216C184.005 62.7151 179.453 49.0236 181.609 36.5997C183.707 24.5069 193.553 10.1706 206.767 9.16647L206.767 9.16571Z" fill="#FF0100"/>
<path d="M341.882 9.16571C344.319 8.97539 346.533 9.22204 348.832 10.0282C349.652 10.316 350.736 11.0278 351.565 11.0978C354.074 11.311 356.052 8.00858 357.723 12.0814C359.354 16.0567 358.651 25.5993 354.072 27.4362C349.615 29.2237 349.044 23.2843 347.449 20.6853C344.744 16.2767 339.741 16.9299 336.443 20.294C330.867 25.983 327.748 43.6323 333.172 49.8603C337.037 54.2969 341.933 50.2744 341.912 45.5256C341.898 42.4729 339.132 44.0944 337.974 43.0819C336.595 41.8768 337.621 38.7876 338.739 37.638C342.002 34.2785 353.325 33.7692 357.099 36.2677C359.805 38.059 358.677 42.3016 355.893 43.3948C355.187 43.6719 354.433 43.6079 353.856 44.2459C353.108 45.0726 352.048 48.1116 351.363 49.3532C347.159 56.9804 339.2 62.6991 330.154 61.6957C324.799 61.102 320.38 57.5011 318.225 52.6495C311.221 36.8859 323.875 10.5741 341.882 9.16723V9.16571Z" fill="#FF0100"/>
<path d="M161.621 9.00737C166.089 8.39988 167.733 11.9124 168.841 15.5398C172.38 27.1256 172.195 39.9439 174.469 51.7124C174.601 52.3976 174.754 53.2936 175.253 53.8158C176.211 54.8177 177.906 54.0077 177.77 56.3113C177.68 57.8399 176.477 59.3876 175.189 60.1222C171.794 62.0604 163.223 61.7802 159.323 61.2352C156.725 60.8721 154.938 60.3871 155.462 57.2651C155.872 54.8215 158.672 55.1397 159.59 53.1855C160.215 51.8555 160.2 49.909 158.662 49.2794C157.597 48.8432 155.053 48.6879 153.836 48.6338C152.1 48.557 147.792 48.4306 146.47 49.488C145.597 50.1868 144.23 53.0386 144.713 54.1104C145.08 54.9227 147.054 54.8055 147.223 56.4666C147.538 59.5688 144.129 60.9916 141.629 61.3676C139.49 61.6897 134.074 61.7254 132.216 60.681C130.8 59.8854 130.982 57.8026 131.63 56.5359C132.224 55.3757 134.017 54.8968 135.079 54.2086C137.597 52.5772 139.515 48.6125 141.013 46.0067C144.098 40.639 147.297 34.9325 150.132 29.4376C151.496 26.7968 152.993 23.8796 153.909 21.0537C155.282 16.8165 155.837 9.79224 161.621 9.00585V9.00737ZM156.752 28.9108C156.108 29.0532 155.488 30.122 155.152 30.6595C154.013 32.4759 152.605 35.3085 151.752 37.2917C151.348 38.2295 150.385 39.6645 151.771 40.2149C153.763 40.1579 156.29 40.5324 158.224 40.2698C159.186 40.1388 159.722 39.6539 159.834 38.6871C160.034 36.9575 159.212 33.0544 158.727 31.2822C158.438 30.2263 158.177 28.5964 156.753 28.9123L156.752 28.9108Z" fill="#FF0100"/>
<path d="M123.63 9.92546C126.999 9.9011 131.231 9.83563 133.618 12.615C137.223 16.8119 134.718 25.0672 131.49 28.8834C130.527 30.0223 128.435 31.3339 128.709 33.0232C128.866 33.9908 130.348 34.6478 131.034 35.4166C137.241 42.3754 130.389 55.5896 123.208 59.3624C118.098 62.0475 113.38 60.9177 107.937 60.7974C104.386 60.719 100.673 60.7677 97.1413 60.9573C95.3669 61.0525 92.7448 61.9835 91.9358 59.6236C90.8137 56.3463 93.803 55.4959 95.303 53.6468C96.7216 51.8982 97.8476 47.2963 98.5075 44.995C99.9253 40.0459 101.188 34.8259 102.309 29.7969C102.933 27.0008 104.711 20.4957 104.103 17.9668C103.594 15.8489 100.841 16.1572 101.697 13.071C102.151 11.4358 103.464 10.4515 105.056 10.0473C111.258 10.4416 117.448 9.97113 123.63 9.92698V9.92546ZM119.063 16.6041C117.522 16.8477 117.102 18.6215 116.744 19.9111C116.088 22.2771 114.86 27.2459 114.697 29.567C114.528 31.9818 115.888 32.268 117.886 31.3895C121.288 29.8929 123.186 21.2981 121.841 18.1617C121.371 17.0639 120.26 16.4153 119.063 16.6041ZM114.657 38.346C112.662 38.6178 112.29 40.6298 111.88 42.2559C111.317 44.488 109.841 50.7707 110.358 52.7508C111.053 55.4198 114.895 53.6552 116.125 52.1258C118.52 49.1462 121.237 37.45 114.657 38.3468V38.346Z" fill="#FF0100"/>
<path d="M251.603 9.16571C267.332 7.93473 270.103 25.9517 267.093 37.7301C264.531 47.7576 256.491 58.2677 246.196 61.0631C236.787 63.618 228.932 59.1607 226.63 49.708C222.798 33.9672 234.032 10.5413 251.603 9.16647V9.16571ZM247.338 19.3409C245.473 19.6568 243.443 22.4979 242.688 24.1148C240.161 29.529 240.158 42.1265 241.916 47.7964C243.617 53.2852 248.336 52.0847 250.8 47.8848C253.781 42.8055 254.021 31.3621 252.953 25.6609C252.401 22.7141 251.111 18.7014 247.338 19.3409Z" fill="#FF0100"/>
<path d="M156.752 28.9108C158.177 28.5956 158.437 30.2248 158.726 31.2807C159.211 33.0529 160.033 36.9559 159.833 38.6855C159.721 39.6524 159.185 40.1373 158.224 40.2682C156.289 40.5316 153.763 40.1563 151.77 40.2134C150.385 39.663 151.348 38.228 151.751 37.2901C152.604 35.3078 154.012 32.4743 155.151 30.6579C155.488 30.1205 156.107 29.0524 156.751 28.9093L156.752 28.9108ZM153.146 39.5214C154.766 39.4971 156.853 39.7018 158.392 39.5237C159.092 39.443 159.374 39.0913 159.378 38.3818C159.388 36.5608 158.566 32.9577 158.009 31.1604C157.898 30.798 157.926 30.4189 157.685 30.0405C156.921 28.8393 155.995 30.1837 155.548 30.9023C154.78 32.1394 151.906 37.5436 151.657 38.719C151.499 39.4575 151.951 39.6676 152.621 39.6744C152.859 39.6767 153.068 39.5207 153.146 39.5199V39.5214Z" fill="#F9E808"/>
<path d="M114.657 38.346C121.237 37.45 118.519 49.1462 116.125 52.125C114.895 53.6544 111.053 55.4198 110.357 52.75C109.841 50.7707 111.317 44.4872 111.88 42.2552C112.291 40.6283 112.662 38.617 114.657 38.3453V38.346ZM111.806 53.2022C116.814 54.6121 118.497 45.5758 118.186 42.1844C118.128 41.5411 117.974 41.2708 117.733 40.7372C117.257 39.6828 116.797 39.1553 115.536 39.0593C114.049 38.9459 113.414 39.2717 112.843 40.6336C112.111 42.3777 110.819 49.0594 110.744 50.9984C110.703 52.0634 110.722 52.8954 111.806 53.2007V53.2022Z" fill="#F9E808"/>
<path d="M119.063 16.6041C120.26 16.4153 121.37 17.0639 121.841 18.1617C123.186 21.2989 121.289 29.8929 117.886 31.3895C115.889 32.268 114.528 31.9818 114.697 29.567C114.86 27.2459 116.087 22.2763 116.744 19.9111C117.101 18.6222 117.522 16.8477 119.063 16.6041ZM121.381 18.8491C120.748 17.2306 118.669 16.5333 117.808 18.2401C117.103 19.6385 115.444 27.3814 115.304 29.1118C115.198 30.4219 115.022 31.1078 116.365 31.0096C117.297 30.9419 117.715 30.9236 118.496 30.3291C120.9 28.4982 122.435 21.544 121.38 18.8491H121.381Z" fill="#F9E808"/>
<path d="M247.338 19.3409C251.111 18.7014 252.401 22.7141 252.953 25.6609C254.021 31.3613 253.781 42.8048 250.8 47.8848C248.336 52.0847 243.618 53.286 241.916 47.7964C240.158 42.1265 240.161 29.5282 242.688 24.1148C243.443 22.4979 245.473 19.6568 247.338 19.3409ZM243.122 48.7937C243.161 48.8196 243.364 48.7397 243.41 48.8044C243.57 49.0305 243.259 49.437 244.031 50.0894C245.389 51.2366 247.202 50.8613 248.514 49.8549C253.277 46.1993 253.403 32.9128 252.676 27.4598C252.508 26.2037 251.912 22.5991 250.874 21.8896C250.604 20.7713 249.162 19.9019 248.063 19.9027C246.129 19.9034 244.169 22.2839 243.345 23.859C240.666 28.9786 240.773 41.3081 242.256 46.8494C242.403 47.4013 242.669 48.5006 243.123 48.7945L243.122 48.7937Z" fill="#F9E808"/>
<path d="M158.01 31.1611C157.203 31.5753 156.754 32.4264 156.312 33.1869C155.14 35.2027 154.245 37.4607 153.147 39.5214C153.068 39.5229 152.86 39.679 152.622 39.676C151.952 39.6691 151.5 39.459 151.657 38.7206C151.907 37.5452 154.78 32.1401 155.549 30.9038C155.996 30.1852 156.922 28.84 157.686 30.0421C157.926 30.4204 157.898 30.7995 158.01 31.1619V31.1611Z" fill="#0B0B06"/>
<path d="M117.733 40.7379C115.211 40.2484 114.38 40.7981 113.673 43.1375C112.72 46.2899 112.229 49.9379 111.806 53.2022C110.722 52.897 110.703 52.0649 110.744 50.9999C110.819 49.0609 112.111 42.3792 112.843 40.6352C113.414 39.2733 114.049 38.9474 115.536 39.0609C116.797 39.1568 117.258 39.6843 117.733 40.7387V40.7379Z" fill="#0B0B06"/>
<path d="M121.381 18.8491C118.872 18.4372 118.589 20.6251 118.112 22.4956C117.4 25.2879 116.921 28.1815 116.366 31.0096C115.022 31.1078 115.199 30.4219 115.304 29.1118C115.444 27.3814 117.104 19.6378 117.809 18.2401C118.669 16.5333 120.748 17.2306 121.382 18.8491H121.381Z" fill="#0B0B06"/>
<path d="M250.873 21.8888C249.172 20.7264 246.999 22.1698 245.863 23.489C243.881 25.7881 243.104 28.7639 242.688 31.7146C241.887 37.3959 242.311 43.1489 243.122 48.7937C242.669 48.4999 242.402 47.4006 242.254 46.8487C240.772 41.3074 240.665 28.9778 243.343 23.8583C244.167 22.2832 246.127 19.9027 248.061 19.9019C249.161 19.9019 250.603 20.7705 250.873 21.8888H250.873Z" fill="#0B0B06"/>
</g>
<defs>
<clipPath id="clip0_4018_5188">
<rect width="360" height="93" fill="white"/>
</clipPath>
</defs>
</svg>
