<svg width="159" height="22" viewBox="0 0 159 22" fill="none" xmlns="http://www.w3.org/2000/svg">
<path d="M29.871 0.707012H23.778V16.707H29.871C31.9927 16.707 34.0275 15.8642 35.5278 14.3639C37.0281 12.8636 37.871 10.8287 37.871 8.70701C37.871 6.58528 37.0281 4.55044 35.5278 3.05015C34.0275 1.54986 31.9927 0.707012 29.871 0.707012ZM29.199 13.273H28.013V4.14103H29.199C29.7986 4.14103 30.3923 4.2591 30.9463 4.48857C31.5003 4.71803 32.0036 5.05438 32.4276 5.47837C32.8516 5.90237 33.188 6.40573 33.4174 6.9597C33.6469 7.51367 33.765 8.1074 33.765 8.70701C33.765 9.91799 33.2839 11.0794 32.4276 11.9356C31.5713 12.7919 30.41 13.273 29.199 13.273Z" fill="white"/>
<path d="M43.81 0.707012L37.589 16.707H41.944L42.991 13.807H48.943L49.99 16.707H54.345L48.165 0.707012H43.81ZM44.11 10.694L45.965 5.55101L47.82 10.694H44.11Z" fill="white"/>
<path d="M69.524 0.707012L65.957 9.57402L62.722 0.707012H58.446L55.792 16.707H59.857L61.226 7.16899L65.126 16.707H66.661L70.643 7.29301L71.929 16.707H75.993L73.546 0.707012H69.524Z" fill="white"/>
<path d="M89.451 5.55503C89.451 4.26927 88.9402 3.03611 88.0311 2.12693C87.1219 1.21776 85.8888 0.707012 84.603 0.707012H77.736V16.707H81.925V10.407H81.975L85.949 16.707H91.133L86.16 10.144C87.1193 9.819 87.9527 9.20151 88.543 8.3784C89.1333 7.55528 89.4508 6.56793 89.451 5.55503ZM83.351 7.91502H81.92V3.72599H83.351C83.9064 3.72599 84.439 3.94664 84.8317 4.33934C85.2244 4.73204 85.445 5.26463 85.445 5.81999C85.4437 6.37418 85.2234 6.9054 84.832 7.29783C84.4407 7.69026 83.9102 7.91212 83.356 7.91502H83.351Z" fill="white"/>
<path d="M96.773 0.707005H92.501V16.707H96.773V0.707005Z" fill="white"/>
<path d="M119.394 16.7746H116.14L114.941 13.6911H107.453L106.254 16.7746H103L109.411 0.707005H112.983L119.394 16.7746ZM114.133 11.2099L111.197 3.54954L108.261 11.2099H114.133Z" fill="white"/>
<path d="M127.465 17.0636C125.972 17.0636 124.626 16.4132 123.672 15.1606V21.207H121.103V5.13944H123.672V6.72933C124.553 5.57304 125.923 4.85037 127.465 4.85037C130.523 4.85037 132.701 7.11476 132.701 10.945C132.701 14.7752 130.523 17.0636 127.465 17.0636ZM126.706 14.8233C128.737 14.8233 130.034 13.2094 130.034 10.945C130.034 8.70465 128.737 7.09067 126.706 7.09067C125.507 7.09067 124.235 7.78926 123.672 8.65648V13.2575C124.235 14.1007 125.507 14.8233 126.706 14.8233Z" fill="white"/>
<path d="M141.611 17.0636C140.118 17.0636 138.772 16.4132 137.818 15.1606V21.207H135.249V5.13944H137.818V6.72933C138.699 5.57304 140.069 4.85037 141.611 4.85037C144.669 4.85037 146.847 7.11476 146.847 10.945C146.847 14.7752 144.669 17.0636 141.611 17.0636ZM140.852 14.8233C142.883 14.8233 144.18 13.2094 144.18 10.945C144.18 8.70465 142.883 7.09067 140.852 7.09067C139.653 7.09067 138.381 7.78926 137.818 8.65648V13.2575C138.381 14.1007 139.653 14.8233 140.852 14.8233Z" fill="white"/>
<path d="M153.432 17.0636C151.425 17.0636 149.59 16.4373 148.367 15.2569L149.541 13.4262C150.373 14.2693 152.013 15.0642 153.554 15.0642C155.096 15.0642 155.879 14.4138 155.879 13.4984C155.879 11.2099 148.734 12.848 148.734 8.39149C148.734 6.48844 150.398 4.85037 153.383 4.85037C155.389 4.85037 156.906 5.54896 157.983 6.48844L156.906 8.27105C156.197 7.4761 154.876 6.87387 153.407 6.87387C152.062 6.87387 151.205 7.4761 151.205 8.29514C151.205 10.3668 158.35 8.8251 158.35 13.4502C158.35 15.4978 156.613 17.0636 153.432 17.0636Z" fill="white"/>
<path d="M11.798 8.707H7.19202L0 0.707005H4.60602L11.798 8.707Z" fill="white"/>
<path d="M19.798 8.707H11.798L4.60602 0.707005H12.606L19.798 8.707Z" fill="#FDCE16"/>
<path d="M11.798 8.707H7.19202L0 16.707H4.60602L11.798 8.707Z" fill="white"/>
<path d="M19.798 8.707H11.798L4.60602 16.707H12.606L19.798 8.707Z" fill="#F7B61D"/>
</svg>
