<svg xmlns="http://www.w3.org/2000/svg" width="41.068" height="31.007" viewBox="0 0 41.068 31.007">
  <path id="Icon_Tot-Pembayaran-Tunai" d="M-1960.326,29.19a2.339,2.339,0,0,1-1.781.81h-25.5A2.39,2.39,0,0,1-1990,27.61V13.138a2.32,2.32,0,0,1,.52-1.481l-.38-1.3-.041-.16a2.38,2.38,0,0,1,1.62-2.96l.16-.05,5.3-1.54,13.561-3.961,5.311-1.541.15-.05a2.4,2.4,0,0,1,2.97,1.63l.041.15,1.549,5.311.869,2.97,1.541,5.3.05.159c.03.1.05.2.07.3a7.039,7.039,0,0,1,6.71,7.031,6.98,6.98,0,0,1-.6,2.85,7.112,7.112,0,0,1-1.991,2.61A7.039,7.039,0,0,1-1957.046,30,6.985,6.985,0,0,1-1960.326,29.19Zm1.149-10.261a3.721,3.721,0,0,0-.54.34,4.542,4.542,0,0,0-1.89,3.681,4.542,4.542,0,0,0,1.89,3.681,4.493,4.493,0,0,0,2.671.87,4.512,4.512,0,0,0,3.731-1.96,4.491,4.491,0,0,0,.82-2.591,4.511,4.511,0,0,0-.36-1.761v-.01a4.546,4.546,0,0,0-1.96-2.19,4.45,4.45,0,0,0-2.231-.59A4.483,4.483,0,0,0-1959.176,18.929Zm-5.74,8.571h2.48a6.7,6.7,0,0,1-1.13-1.86A4.9,4.9,0,0,0-1964.916,27.5Zm-20.253-9.991a7.3,7.3,0,0,1-2.3,1.06c-.01,0-.02.01-.03.01v3.6a6.508,6.508,0,0,1,1.21.44,7.513,7.513,0,0,1,3.4,3.1,7.731,7.731,0,0,1,.72,1.78h14.622a7.412,7.412,0,0,1,3.441-4.53v-.02a6.918,6.918,0,0,1,.62-2.88,6.4,6.4,0,0,1,.979-1.571,7.739,7.739,0,0,1-1.82-.84,7.457,7.457,0,0,1-3.22-4.411h-14.622A7.443,7.443,0,0,1-1985.169,17.508Zm-2.33,9.942a.047.047,0,0,0,.049.05h2.662a5.025,5.025,0,0,0-2.711-2.7Zm27.783-11.091.46-.131a.06.06,0,0,0,.031-.07l-.491-1.68Zm-4.129-1.491a5,5,0,0,0,1.629,1.09v-2.65a.056.056,0,0,0-.05-.06h-2.65A4.888,4.888,0,0,0-1963.845,14.868Zm-23.654-1.56v2.65a4.944,4.944,0,0,0,1.58-1.04,5.153,5.153,0,0,0,.491-.561,5.121,5.121,0,0,0,.641-1.11h-2.662A.056.056,0,0,0-1987.5,13.308Zm17.812-2.561h7.581a2.42,2.42,0,0,1,1.33.4c.03-.021.049-.031.08-.05l-1.011-3.45a7.486,7.486,0,0,1-6.61-3.631l-14.042,4.1a7.266,7.266,0,0,1-.4,2.63H-1977a4.211,4.211,0,0,1,2.471-1.92,4.242,4.242,0,0,1,1.181-.168A4.26,4.26,0,0,1-1969.687,10.747Zm-17.732-1.16a.057.057,0,0,0-.04.07l.32,1.09h1.66a5.006,5.006,0,0,0,.6-1.9Zm24.173-7.041-2.55.74a5,5,0,0,0,3.36,1.841l-.75-2.551a.033.033,0,0,0-.038-.033A.073.073,0,0,0-1963.246,2.546Zm6.8,23.493V21.659h.911v.42a.908.908,0,0,1,.369-.33,1.093,1.093,0,0,1,.55-.13,1.258,1.258,0,0,1,.66.18,1.3,1.3,0,0,1,.471.54,1.69,1.69,0,0,1,.18.8,1.762,1.762,0,0,1-.18.81,1.221,1.221,0,0,1-.471.53,1.181,1.181,0,0,1-.66.19,1.094,1.094,0,0,1-.55-.131.9.9,0,0,1-.369-.329v1.83Zm1.1-3.43a.724.724,0,0,0-.19.54.718.718,0,0,0,.19.53.61.61,0,0,0,.459.2.629.629,0,0,0,.46-.2.727.727,0,0,0,.19-.54.7.7,0,0,0-.19-.53.614.614,0,0,0-.46-.2A.61.61,0,0,0-1955.344,22.609Zm-2.662,2.02-.779-1.41h-.222v1.41h-.91V20.9h1.53a1.667,1.667,0,0,1,.75.15,1.016,1.016,0,0,1,.471.419,1.217,1.217,0,0,1,.149.6,1.128,1.128,0,0,1-.21.67,1.114,1.114,0,0,1-.619.41l.869,1.48Zm-1-2.05h.571a.519.519,0,0,0,.37-.131.424.424,0,0,0,.13-.34.437.437,0,0,0-.13-.339.516.516,0,0,0-.37-.121h-.571Zm-18.052,1.44a4.251,4.251,0,0,1-2.031-3.2v-.01c-.009-.14-.02-.29-.02-.43a4.24,4.24,0,0,1,3.18-4.11,4.187,4.187,0,0,1,1.07-.14,4.237,4.237,0,0,1,2.6.89,4.207,4.207,0,0,1,1.571,2.54,4.424,4.424,0,0,1,.079.82,4.136,4.136,0,0,1-.45,1.89,4.226,4.226,0,0,1-3.8,2.36A4.231,4.231,0,0,1-1977.058,24.02Zm.45-3.641a1.638,1.638,0,0,0,.229.841,1.725,1.725,0,0,0,1.52.91,1.759,1.759,0,0,0,1.751-1.751.378.378,0,0,0-.01-.11,1.751,1.751,0,0,0-1.741-1.64A1.759,1.759,0,0,0-1976.608,20.379Z" transform="translate(1990.563 0.507)" fill="#fff" stroke="rgba(0,0,0,0)" stroke-width="1"/>
</svg>
