<svg xmlns="http://www.w3.org/2000/svg" width="31" height="30.99" viewBox="0 0 31 30.99">
  <path id="Icon_Tot-Penumpang-Non-Tunai" d="M-1962.5,29.99h-11.233a2.452,2.452,0,0,1-2.448-2.448V20.927a2.453,2.453,0,0,1,2.448-2.449h3.637a12.552,12.552,0,0,0-4.906-1,12.516,12.516,0,0,0-12.5,12.512h-2.5a15.028,15.028,0,0,1,11.972-14.7,7.937,7.937,0,0,1-4.917-7.346A7.946,7.946,0,0,1-1975,0a7.946,7.946,0,0,1,7.945,7.945,7.937,7.937,0,0,1-4.918,7.346,14.933,14.933,0,0,1,6.577,3.188h2.958A2.444,2.444,0,0,1-1960,20.927v6.615a2.338,2.338,0,0,1-.11.71,2.44,2.44,0,0,1-2.329,1.739Zm-11.183-2.5h11.183V24.234h-11.183Zm0-5.527h11.183v-.989h-11.183Zm-6.765-14.021A5.453,5.453,0,0,0-1975,13.391a5.453,5.453,0,0,0,5.446-5.447A5.459,5.459,0,0,0-1975,2.5,5.459,5.459,0,0,0-1980.446,7.945Zm9.262,18.891a1.133,1.133,0,0,1-1.131-1.132,1.131,1.131,0,0,1,1.131-1.131h1.6a1.131,1.131,0,0,1,1.132,1.131,1.133,1.133,0,0,1-1.132,1.132Z" transform="translate(1990.5 0.5)" fill="#fff" stroke="rgba(0,0,0,0)" stroke-width="1"/>
</svg>
