<svg xmlns="http://www.w3.org/2000/svg" width="31" height="30.989" viewBox="0 0 31 30.989">
  <path id="Icon_Tot-Penumpang-Tunai" d="M-1990,29.989a15.036,15.036,0,0,1,11.982-14.7,7.937,7.937,0,0,1-4.917-7.345A7.946,7.946,0,0,1-1974.99,0a7.945,7.945,0,0,1,7.944,7.944,7.936,7.936,0,0,1-4.917,7.345,13.893,13.893,0,0,1,2.868.909,6.976,6.976,0,0,1,2.049-.309A7.05,7.05,0,0,1-1960,22.934a6.97,6.97,0,0,1-.6,2.848,7.115,7.115,0,0,1-1.989,2.608,7.032,7.032,0,0,1-4.458,1.588,7.045,7.045,0,0,1-7.055-7.045,6.96,6.96,0,0,1,2.178-5.076,12.394,12.394,0,0,0-3.068-.38A12.524,12.524,0,0,0-1987.5,29.989Zm20.825-11.072a4.554,4.554,0,0,0-2.428,4.018,4.56,4.56,0,0,0,4.557,4.547,4.508,4.508,0,0,0,3.728-1.959,4.482,4.482,0,0,0,.819-2.588,4.511,4.511,0,0,0-.36-1.759v-.01a4.542,4.542,0,0,0-1.959-2.188,4.446,4.446,0,0,0-2.229-.59A4.49,4.49,0,0,0-1969.175,18.917Zm-11.262-10.972a5.453,5.453,0,0,0,5.447,5.447,5.452,5.452,0,0,0,5.446-5.447A5.458,5.458,0,0,0-1974.99,2.5,5.459,5.459,0,0,0-1980.437,7.944Zm13.993,18.087v-4.38h.909v.419a.982.982,0,0,1,.367-.334,1.123,1.123,0,0,1,.548-.128,1.227,1.227,0,0,1,.664.185,1.291,1.291,0,0,1,.47.532,1.777,1.777,0,0,1,.173.8,1.789,1.789,0,0,1-.173.8,1.3,1.3,0,0,1-.47.537,1.215,1.215,0,0,1-.664.189,1.134,1.134,0,0,1-.545-.128,1,1,0,0,1-.37-.33v1.828Zm1.094-3.433a.739.739,0,0,0-.189.536.743.743,0,0,0,.189.537.608.608,0,0,0,.46.2.619.619,0,0,0,.462-.2.752.752,0,0,0,.192-.54.732.732,0,0,0-.19-.535.621.621,0,0,0-.464-.193A.608.608,0,0,0-1965.35,22.6Zm-2.657,2.019-.776-1.409H-1969v1.409h-.908V20.886h1.526a1.682,1.682,0,0,1,.752.154,1.063,1.063,0,0,1,.466.423,1.19,1.19,0,0,1,.154.6,1.118,1.118,0,0,1-.21.665,1.138,1.138,0,0,1-.62.414l.862,1.478Zm-.994-2.051h.564a.516.516,0,0,0,.374-.122.466.466,0,0,0,.125-.345.449.449,0,0,0-.125-.335.516.516,0,0,0-.374-.122H-1969Z" transform="translate(1990.5 0.5)" fill="#fff" stroke="rgba(0,0,0,0)" stroke-width="1"/>
</svg>
