<svg xmlns="http://www.w3.org/2000/svg" width="31" height="40.987" viewBox="0 0 31 40.987">
  <path id="Icon_Tot-Pembayaran-Non-Tunai" d="M-1980.952,39.987a2.3,2.3,0,0,1-2.3-2.3V31.18h-3.659A3.083,3.083,0,0,1-1990,28.1V3.089A3.084,3.084,0,0,1-1986.911,0h14.816a3.084,3.084,0,0,1,3.089,3.089V23.553h6.7a2.3,2.3,0,0,1,2.3,2.3v1.86h.01v3.908h-.01v6.069a2.3,2.3,0,0,1-2.3,2.3Zm.2-2.5h18.243V31.619h-18.243Zm-6.748-34.4V28.1a.583.583,0,0,0,.589.58h3.659v-2.83a2.3,2.3,0,0,1,2.3-2.3h9.446V3.089a.584.584,0,0,0-.589-.589h-1.645a1.478,1.478,0,0,1-1.478,1.478h-8.57a1.478,1.478,0,0,1-1.478-1.478h-1.645A.584.584,0,0,0-1987.5,3.089Zm6.748,24.622h18.243V26.052h-18.243Zm-3.059-25.65a.848.848,0,0,0,.848.848.848.848,0,0,0,.848-.848.848.848,0,0,0-.848-.848A.848.848,0,0,0-1983.812,2.061Zm3.422.063a.6.6,0,0,0,.6.6h2.638a.6.6,0,0,0,.6-.6.6.6,0,0,0-.6-.6h-2.638A.6.6,0,0,0-1980.389,2.124Zm7.969,33.522a1.25,1.25,0,0,1-1.25-1.25,1.249,1.249,0,0,1,1.25-1.25h3.944a1.249,1.249,0,0,1,1.25,1.25,1.25,1.25,0,0,1-1.25,1.25Zm-5.7,0a1.25,1.25,0,0,1-1.25-1.25,1.249,1.249,0,0,1,1.25-1.25h2.2a1.249,1.249,0,0,1,1.25,1.25,1.25,1.25,0,0,1-1.25,1.25Z" transform="translate(1990.5 0.5)" fill="#fff" stroke="rgba(0,0,0,0)" stroke-width="1"/>
</svg>
