<svg width="16" height="16" viewBox="0 0 16 16" fill="none" xmlns="http://www.w3.org/2000/svg">
<path d="M10.5 2.99987C11.3284 2.99987 12 2.3283 12 1.49987C12 0.671443 11.3284 -0.0001297 10.5 -0.0001297C9.67157 -0.0001297 9 0.671443 9 1.49987C9 2.3283 9.67157 2.99987 10.5 2.99987Z" fill="#00489A"/>
<path d="M15.3088 1.04874C15.8341 1.21929 16.1217 1.78338 15.9511 2.30867L13.2774 10.5439C12.6083 12.6045 10.6883 13.9999 8.52173 13.9999H5C4.44772 13.9999 4 13.5522 4 12.9999C4 12.4476 4.44772 11.9999 5 11.9999H8.52173C9.82165 11.9999 10.9737 11.1627 11.3751 9.92628L14.0489 1.69106C14.2194 1.16577 14.7835 0.878192 15.3088 1.04874Z" fill="#00489A"/>
<path d="M11.2001 3.59248C11.5792 3.70813 11.7638 4.11439 11.6501 4.49988L10.4324 8.4032C9.81798 10.0986 8.96895 10.6871 8.45362 10.8913C8.31779 10.9606 8.16403 10.9997 8.00115 10.9999L8.00005 10.9999L4.42926 10.9999C4.02659 10.9999 3.6632 11.2414 3.50727 11.6126L1.922 15.3871C1.70814 15.8963 1.12198 16.1357 0.612783 15.9219C0.103586 15.708 -0.135829 15.1218 0.0780334 14.6126L1.92067 10.2254C2.23252 9.4829 2.9593 8.99987 3.76464 8.99987H6.49036C6.91263 8.99987 7.28939 8.73462 7.43179 8.33708L7.55257 7.99987H5C4.44772 7.99987 4 7.55216 4 6.99987C4 6.44759 4.44772 5.99987 5 5.99987H7.56494C7.98721 5.99987 8.36397 5.73462 8.50637 5.33708L8.69642 4.8065C8.97729 4.02237 9.71556 3.48037 10.5475 3.51994C10.8312 3.53343 11.0799 3.55582 11.2001 3.59248Z" fill="#00489A"/>
</svg>
