<svg width="10" height="12" viewBox="0 0 10 12" fill="none" xmlns="http://www.w3.org/2000/svg">
<path d="M2.85355 0.146447C2.65829 -0.0488155 2.34171 -0.0488155 2.14645 0.146447L0.146447 2.14645C-0.0488155 2.34171 -0.0488155 2.65829 0.146447 2.85355C0.341709 3.04882 0.658291 3.04882 0.853553 2.85355L2 1.70711V11.5C2 11.7761 2.22386 12 2.5 12C2.77614 12 3 11.7761 3 11.5V1.70711L4.14645 2.85355C4.34171 3.04882 4.65829 3.04882 4.85355 2.85355C5.04882 2.65829 5.04882 2.34171 4.85355 2.14645L2.85355 0.146447Z" fill="#154A94"/>
<path d="M9.85355 9.85355L7.85355 11.8536C7.65829 12.0488 7.34171 12.0488 7.14645 11.8536L5.14645 9.85355C4.95118 9.65829 4.95118 9.34171 5.14645 9.14645C5.34171 8.95118 5.65829 8.95118 5.85355 9.14645L7 10.2929V0.5C7 0.223858 7.22386 2.23517e-08 7.5 2.23517e-08C7.77614 2.23517e-08 8 0.223858 8 0.5V10.2929L9.14645 9.14645C9.34171 8.95118 9.65829 8.95118 9.85355 9.14645C10.0488 9.34171 10.0488 9.65829 9.85355 9.85355Z" fill="#154A94"/>
</svg>
