<svg width="48" height="70" viewBox="0 0 48 70" fill="none" xmlns="http://www.w3.org/2000/svg">
<path d="M24 0V25.0001" stroke="#D6D7DA" stroke-width="2" stroke-dasharray="3 3"/>
<path fill-rule="evenodd" clip-rule="evenodd" d="M24.5742 44.8187C24.2295 45.0604 23.7699 45.0601 23.4253 44.8184L23.4228 44.8166L23.4172 44.8127L23.3986 44.7994C23.3829 44.7882 23.3607 44.7722 23.3325 44.7517C23.2762 44.7106 23.1956 44.6511 23.0943 44.5741C22.8917 44.4203 22.6058 44.1962 22.2641 43.9101C21.5823 43.3389 20.6711 42.5139 19.7569 41.4988C17.9637 39.5076 16 36.6105 16 33.3636C16 31.1613 16.8312 29.0397 18.3255 27.4678C19.8214 25.8941 21.8615 25 24 25C26.1385 25 28.1786 25.8941 29.6745 27.4678C31.1688 29.0397 32 31.1613 32 33.3636C32 36.6105 30.0363 39.5076 28.2431 41.4988C27.3289 42.5139 26.4177 43.3389 25.7359 43.9101C25.3942 44.1962 25.1083 44.4203 24.9057 44.5741C24.8044 44.6511 24.7238 44.7106 24.6675 44.7517C24.6393 44.7722 24.6171 44.7882 24.6014 44.7994L24.5828 44.8127L24.5772 44.8166L24.5754 44.8179L24.5742 44.8187ZM21 33C21 31.3431 22.3431 30 24 30C25.6569 30 27 31.3431 27 33C27 34.6569 25.6569 36 24 36C22.3431 36 21 34.6569 21 33Z" fill="#E19E00"/>
</svg>
