<svg width="20" height="20" viewBox="0 0 20 20" fill="none" xmlns="http://www.w3.org/2000/svg">
<path d="M10 20C7.34873 19.9971 4.80686 18.9426 2.93213 17.0679C1.0574 15.1931 0.0029116 12.6513 0 10C0.0029116 7.34873 1.0574 4.80686 2.93213 2.93213C4.80686 1.0574 7.34873 0.0029116 10 0C12.6513 0.0029116 15.1931 1.0574 17.0679 2.93213C18.9426 4.80686 19.9971 7.34873 20 10C19.9971 12.6513 18.9426 15.1931 17.0679 17.0679C15.1931 18.9426 12.6513 19.9971 10 20ZM9.09998 8.13599V17H11.34V8.13599H9.09998ZM10.2371 4.45599C10.0562 4.45062 9.87596 4.48106 9.70691 4.54559C9.53786 4.61012 9.38323 4.70744 9.25195 4.83197C9.12493 4.95196 9.0245 5.09732 8.95715 5.25854C8.8898 5.41977 8.85704 5.59332 8.86096 5.76801C8.85722 5.94267 8.89018 6.11614 8.95752 6.27734C9.02486 6.43855 9.12508 6.58388 9.25195 6.70398C9.38341 6.82819 9.53813 6.92528 9.70715 6.98962C9.87618 7.05397 10.0563 7.08432 10.2371 7.07898C10.4177 7.08441 10.5976 7.0541 10.7665 6.98975C10.9354 6.92539 11.0897 6.82825 11.2209 6.70398C11.3478 6.58388 11.4482 6.43855 11.5155 6.27734C11.5828 6.11614 11.6158 5.94267 11.6121 5.76801C11.616 5.59332 11.5831 5.41977 11.5157 5.25854C11.4484 5.09732 11.348 4.95196 11.2209 4.83197C11.0902 4.70779 10.9363 4.61067 10.7679 4.54614C10.5996 4.48162 10.4202 4.45098 10.24 4.45599H10.2371Z" fill="#fff"/>
</svg>
