<svg width="16" height="11" viewBox="0 0 16 11" fill="none" xmlns="http://www.w3.org/2000/svg">
<path d="M14.9159 3.11539C15.1269 2.90438 15.1097 2.554 14.8683 2.37866C12.8078 0.882401 10.2726 0 7.53133 0C4.79007 0 2.25491 0.882401 0.194385 2.37866C-0.0470864 2.554 -0.0642919 2.90438 0.146723 3.11539C0.325266 3.29394 0.609793 3.31191 0.814633 3.16428C2.7043 1.80234 5.02411 1 7.53133 1C10.0385 1 12.3584 1.80234 14.248 3.16428C14.4529 3.31191 14.7374 3.29394 14.9159 3.11539Z" fill="#154A94"/>
<path d="M12.7603 5.27103C12.9764 5.05492 12.9539 4.69262 12.6975 4.52619C11.2105 3.56075 9.43638 3 7.53133 3C5.62627 3 3.85219 3.56075 2.36512 4.52619C2.10878 4.69262 2.08624 5.05492 2.30236 5.27103C2.47503 5.44371 2.74904 5.46769 2.95471 5.33603C4.27581 4.49031 5.84631 4 7.53133 4C9.21635 4 10.7869 4.4903 12.108 5.33603C12.3136 5.46769 12.5876 5.44371 12.7603 5.27103Z" fill="#154A94"/>
<path d="M10.5774 7.45392C10.8036 7.22778 10.7622 6.84946 10.4772 6.70432C9.59288 6.25394 8.59176 6 7.53133 6C6.4709 6 5.46977 6.25394 4.58546 6.70432C4.30048 6.84946 4.25911 7.22778 4.48525 7.45392L4.50028 7.46895C4.66066 7.62933 4.90789 7.65946 5.11151 7.55955C5.84173 7.20121 6.66303 7 7.53133 7C8.39962 7 9.22093 7.20121 9.95115 7.55955C10.1548 7.65946 10.402 7.62933 10.5624 7.46895L10.5774 7.45392Z" fill="#154A94"/>
<path d="M8.59199 9.43934C8.78725 9.24408 8.78924 8.92072 8.55188 8.77961C8.25311 8.602 7.90413 8.5 7.53133 8.5C7.15853 8.5 6.80955 8.602 6.51078 8.77961C6.27342 8.92072 6.27541 9.24408 6.47067 9.43934L7.17778 10.1464C7.37304 10.3417 7.68962 10.3417 7.88488 10.1464L8.59199 9.43934Z" fill="#154A94"/>
</svg>
