<svg width="12" height="16" viewBox="0 0 12 16" fill="none" xmlns="http://www.w3.org/2000/svg">
<path d="M8.85355 7.85355C9.04882 7.65829 9.04882 7.34171 8.85355 7.14645C8.65829 6.95118 8.34171 6.95118 8.14645 7.14645L5.5 9.79289L4.35355 8.64645C4.15829 8.45118 3.84171 8.45118 3.64645 8.64645C3.45118 8.84171 3.45118 9.15829 3.64645 9.35355L5.14645 10.8536C5.24021 10.9473 5.36739 11 5.5 11C5.63261 11 5.75979 10.9473 5.85355 10.8536L8.85355 7.85355Z" fill="#26BE26"/>
<path d="M12 14V4.5L7.5 0H2C0.895431 0 0 0.89543 0 2V14C0 15.1046 0.895431 16 2 16H10C11.1046 16 12 15.1046 12 14ZM7.5 3C7.5 3.82843 8.17157 4.5 9 4.5H11V14C11 14.5523 10.5523 15 10 15H2C1.44772 15 1 14.5523 1 14V2C1 1.44772 1.44772 1 2 1H7.5V3Z" fill="#26BE26"/>
</svg>
