<svg width="12" height="16" viewBox="0 0 12 16" fill="none" xmlns="http://www.w3.org/2000/svg">
<path d="M4.85355 7.14645C4.65829 6.95118 4.34171 6.95118 4.14645 7.14645C3.95118 7.34171 3.95118 7.65829 4.14645 7.85355L5.29289 9L4.14645 10.1464C3.95118 10.3417 3.95118 10.6583 4.14645 10.8536C4.34171 11.0488 4.65829 11.0488 4.85355 10.8536L6 9.70711L7.14645 10.8536C7.34171 11.0488 7.65829 11.0488 7.85355 10.8536C8.04882 10.6583 8.04882 10.3417 7.85355 10.1464L6.70711 9L7.85355 7.85355C8.04882 7.65829 8.04882 7.34171 7.85355 7.14645C7.65829 6.95118 7.34171 6.95118 7.14645 7.14645L6 8.29289L4.85355 7.14645Z" fill="#ED4037"/>
<path d="M12 14V4.5L7.5 0H2C0.895431 0 0 0.89543 0 2V14C0 15.1046 0.895431 16 2 16H10C11.1046 16 12 15.1046 12 14ZM7.5 3C7.5 3.82843 8.17157 4.5 9 4.5H11V14C11 14.5523 10.5523 15 10 15H2C1.44772 15 1 14.5523 1 14V2C1 1.44772 1.44772 1 2 1H7.5V3Z" fill="#ED4037"/>
</svg>
