<svg width="40" height="40" viewBox="0 0 40 40" fill="none" xmlns="http://www.w3.org/2000/svg">
<path d="M10 2.5C10 1.11938 11.1193 0 12.5 0H20C21.3808 0 22.5 1.11938 22.5 2.5V10C22.5 11.3806 21.3808 12.5 20 12.5C18.6193 12.5 17.5 11.3806 17.5 10C17.5 9.45955 16.8466 9.18889 16.4644 9.57105L4.26776 21.7679C3.29151 22.7441 1.70856 22.7441 0.732307 21.7679C-0.244102 20.7913 -0.244102 19.2087 0.732307 18.2321L12.929 6.03558C13.3111 5.65343 13.0405 5 12.5 5C11.1193 5 10 3.88062 10 2.5Z" fill="#154A94"/>
<path d="M40 8.74046C40 8.05011 39.4404 7.5 38.75 7.5H33.75C33.0597 7.5 32.5 8.05969 32.5 8.75V13.75C32.5 14.4403 31.9403 15 31.25 15H26.25C25.5597 15 25 15.5597 25 16.25V21.25C25 21.9403 24.4403 22.5 23.75 22.5H18.75C18.0597 22.5 17.5 23.0597 17.5 23.75V28.75C17.5 29.4403 16.9403 30 16.25 30H11.25C10.5597 30 10 30.5597 10 31.25V36.25C10 36.9403 9.44034 37.5 8.75003 37.5H1.25004C0.55973 37.5 3.81469e-05 38.0597 3.81469e-05 38.75C3.81469e-05 39.4403 0.55973 40 1.25004 40H37.5C38.8808 40 40 38.8806 40 37.5C40 33.9781 40 13.9533 40 8.74046Z" fill="#154A94"/>
</svg>
