<svg width="40" height="40" viewBox="0 0 40 40" fill="none" xmlns="http://www.w3.org/2000/svg">
<path d="M12.6002 19.9996C12.6002 21.3802 11.481 22.4996 10.1002 22.4996L2.6004 22.4996C1.21966 22.4996 0.100451 21.3802 0.100451 19.9996L0.100452 12.4998C0.100452 11.1192 1.21966 9.99986 2.6004 9.99986C3.98114 9.99986 5.10034 11.1192 5.10034 12.4998C5.10034 13.0402 5.75375 13.3109 6.1359 12.9287L18.3323 0.732177C19.3086 -0.244059 20.8915 -0.244059 21.8677 0.732177C22.8441 1.70872 22.8441 3.29133 21.8677 4.26787L9.6713 16.4641C9.28915 16.8463 9.5598 17.4997 10.1002 17.4997C11.481 17.4997 12.6002 18.6191 12.6002 19.9996Z" fill="#154A94"/>
<path d="M39.9996 8.74113C39.9996 8.05079 39.44 7.5007 38.7497 7.5007H33.7498C33.0595 7.5007 32.4998 8.06038 32.4998 8.75067V13.7506C32.4998 14.4409 31.9401 15.0005 31.2498 15.0005H26.2499C25.5596 15.0005 25 15.5602 25 16.2505V21.2504C25 21.9407 24.4403 22.5004 23.75 22.5004H18.7501C18.0598 22.5004 17.5001 23.0601 17.5001 23.7503V28.7502C17.5001 29.4405 16.9404 30.0002 16.2501 30.0002H11.2502C10.56 30.0002 10.0003 30.5599 10.0003 31.2502V36.2501C10.0003 36.9404 9.44059 37.5001 8.7503 37.5001H1.25046C0.560169 37.5001 0.000488281 38.0597 0.000488281 38.75C0.000488281 39.4403 0.560169 40 1.25046 40H37.4997C38.8804 40 39.9996 38.8806 39.9996 37.5001C39.9996 33.9782 39.9996 13.9539 39.9996 8.74113Z" fill="#154A94"/>
</svg>
