<svg width="24" height="24" viewBox="0 0 24 24" fill="none" xmlns="http://www.w3.org/2000/svg">
<path d="M6.33529 13.4158L13.4177 6.33338L17.666 10.5817L10.5836 17.6641L6.33529 13.4158ZM17.3129 6.68772C17.5944 6.96887 17.9759 7.1269 18.3738 7.12714C18.7716 7.12738 19.1533 6.96981 19.4352 6.68899L21.5599 8.81378C21.6995 8.95329 21.8101 9.11892 21.8856 9.30121C21.9611 9.4835 22 9.67887 22 9.87617C22 10.0735 21.9611 10.2688 21.8856 10.4511C21.8101 10.6334 21.6995 10.799 21.5599 10.9386L10.9386 21.5599C10.799 21.6995 10.6334 21.8101 10.4511 21.8856C10.2688 21.9611 10.0735 22 9.87617 22C9.67887 22 9.48349 21.9611 9.30121 21.8856C9.11892 21.8101 8.95329 21.6995 8.81378 21.5599L6.68899 19.4352C6.97076 19.1534 7.12905 18.7712 7.12905 18.3728C7.12905 17.9743 6.97076 17.5921 6.68899 17.3104C6.40723 17.0286 6.02507 16.8703 5.6266 16.8703C5.22812 16.8703 4.84597 17.0286 4.56421 17.3104L2.44006 15.1862C2.15829 14.9045 2 14.5223 2 14.1238C2 13.7254 2.15829 13.3432 2.44006 13.0614L13.0633 2.43815C13.3453 2.15722 13.7272 1.99964 14.1252 2C14.5232 2.00036 14.9048 2.15863 15.1862 2.44006L17.3104 4.56421C17.0293 4.84626 16.8717 5.22833 16.8722 5.62649C16.8727 6.02465 17.0312 6.40634 17.3129 6.68772ZM13.9486 5.44815C13.8078 5.30736 13.6168 5.22826 13.4177 5.22826C13.2186 5.22826 13.0276 5.30736 12.8868 5.44815L5.45006 12.8849C5.30927 13.0257 5.23017 13.2167 5.23017 13.4158C5.23017 13.6149 5.30927 13.8059 5.45006 13.9467L10.0533 18.5499C10.1941 18.6907 10.3851 18.7698 10.5842 18.7698C10.7833 18.7698 10.9743 18.6907 11.1151 18.5499L18.5512 11.1138C18.692 10.973 18.7711 10.7821 18.7711 10.5829C18.7711 10.3838 18.692 10.1929 18.5512 10.0521L13.9486 5.44815Z" fill="#154A94"/>
</svg>
