<svg width="12" height="16" viewBox="0 0 12 16" fill="none" xmlns="http://www.w3.org/2000/svg">
<path d="M11.4995 1.49971C11.632 1.49944 11.759 1.44668 11.8527 1.35299C11.9464 1.2593 11.9992 1.13231 11.9994 0.999807V0.499904C11.9992 0.367404 11.9464 0.24041 11.8527 0.146719C11.759 0.0530273 11.632 0.000271794 11.4995 0L0.500636 0C0.368137 0.000271794 0.241142 0.0530273 0.147451 0.146719C0.0537598 0.24041 0.00100428 0.367404 0.000732483 0.499904V0.999807C0.00100428 1.13231 0.0537598 1.2593 0.147451 1.35299C0.241142 1.44668 0.368137 1.49944 0.500636 1.49971H1.00054V6.39588C0.368974 6.71167 0.000732483 7.0902 0.000732483 7.49855C0.00059061 8.49409 0.24851 9.47396 0.722087 10.3496C1.19566 11.2253 1.87997 11.9692 2.71317 12.514L2.04458 14.7091C1.99887 14.8585 1.98887 15.0166 2.01538 15.1706C2.04189 15.3247 2.10417 15.4703 2.19722 15.5959C2.29026 15.7214 2.41148 15.8234 2.55111 15.8936C2.69074 15.9638 2.8449 16.0002 3.00118 16H9.00002C9.1563 16.0002 9.31046 15.9638 9.45009 15.8936C9.58973 15.8234 9.71094 15.7214 9.80399 15.5959C9.89704 15.4703 9.95932 15.3247 9.98583 15.1706C10.0123 15.0166 10.0023 14.8585 9.95663 14.7091L9.28803 12.5161C10.1213 11.9709 10.8056 11.2267 11.279 10.3506C11.7524 9.47457 12 8.49434 11.9994 7.49855C11.9994 7.08711 11.6312 6.71064 10.9996 6.39588V1.49971H11.4995ZM2.50025 2.24957C2.50052 2.18336 2.52694 2.11994 2.57376 2.07312C2.62057 2.02631 2.68399 1.99988 2.7502 1.99961H4.24991C4.31612 1.99988 4.37954 2.02631 4.42636 2.07312C4.47317 2.11994 4.49959 2.18336 4.49986 2.24957V2.74947C4.49959 2.81568 4.47317 2.8791 4.42636 2.92591C4.37954 2.97273 4.31612 2.99915 4.24991 2.99942H2.7502C2.68399 2.99915 2.62057 2.97273 2.57376 2.92591C2.52694 2.8791 2.50052 2.81568 2.50025 2.74947V2.24957ZM5.99752 8.49836C3.58852 8.49836 1.63519 8.05194 1.63519 7.49855C1.63519 6.94516 3.58955 6.49875 5.99752 6.49875C8.40549 6.49875 10.3598 6.94516 10.3598 7.49855C10.3598 8.05194 8.40549 8.49836 5.99752 8.49836Z" fill="#154A94"/>
</svg>
