<svg width="24" height="24" viewBox="0 0 24 24" fill="none" xmlns="http://www.w3.org/2000/svg">
<path d="M10.3889 13.6111C9.49924 12.7214 9.49924 11.2786 10.3889 10.3889C11.2786 9.49924 12.7214 9.49924 13.6111 10.3889C14.5008 11.2786 14.5008 12.7214 13.6111 13.6111C12.7214 14.5008 11.2786 14.5008 10.3889 13.6111Z" fill="#033D82"/>
<path fill-rule="evenodd" clip-rule="evenodd" d="M13.6111 2.33366C14.0559 1.88878 14.7772 1.88878 15.2221 2.33366L21.6663 8.77789C22.1112 9.22277 22.1112 9.94406 21.6663 10.3889L10.3889 21.6663C9.94406 22.1112 9.22277 22.1112 8.77789 21.6663L2.33366 15.2221C1.88878 14.7772 1.88878 14.0559 2.33366 13.6111L13.6111 2.33366ZM16.0276 4.75025C15.1379 5.64001 13.6953 5.64001 12.8055 4.75025L4.75025 12.8055C5.64001 13.6953 5.64001 15.1379 4.75025 16.0276L7.97236 19.2498C8.86212 18.36 10.3047 18.36 11.1945 19.2498L19.2498 11.1945C18.36 10.3047 18.36 8.86212 19.2498 7.97236L16.0276 4.75025Z" fill="#033D82"/>
</svg>
