<svg width="12" height="12" viewBox="0 0 12 12" fill="none" xmlns="http://www.w3.org/2000/svg">
<path d="M1.7334 12.0003C1.27382 11.9998 0.8332 11.817 0.508227 11.4921C0.183255 11.1671 0.000476496 10.7265 0 10.2669C0.00141311 9.27433 0.272443 8.3008 0.784134 7.45031C1.29583 6.59982 2.02895 5.90431 2.9052 5.43809C2.58053 4.89152 2.40638 4.26873 2.40046 3.63304C2.39454 2.99734 2.55706 2.37142 2.87149 1.8189C3.18593 1.26639 3.64107 0.806992 4.19063 0.487423C4.74019 0.167854 5.36458 -0.000488281 6.0003 -0.000488281C6.63602 -0.000488281 7.26041 0.167854 7.80997 0.487423C8.35953 0.806992 8.81467 1.26639 9.12911 1.8189C9.44354 2.37142 9.60606 2.99734 9.60014 3.63304C9.59422 4.26873 9.42007 4.89152 9.0954 5.43809C9.97149 5.90444 10.7045 6.59999 11.216 7.45047C11.7276 8.30095 11.9986 9.27441 12 10.2669C11.9995 10.7265 11.8167 11.1671 11.4918 11.4921C11.1668 11.817 10.7262 11.9998 10.2666 12.0003H1.7334ZM1.2 10.2669C1.20016 10.4083 1.25641 10.5439 1.3564 10.6439C1.4564 10.7439 1.59198 10.8001 1.7334 10.8003H10.2666C10.408 10.8001 10.5436 10.7439 10.6436 10.6439C10.7436 10.5439 10.7998 10.4083 10.8 10.2669C10.7993 9.44576 10.5619 8.64224 10.1164 7.9525C9.67084 7.26276 9.03599 6.71601 8.2878 6.37769C7.64386 6.90919 6.83496 7.1999 6 7.1999C5.16504 7.1999 4.35614 6.90919 3.7122 6.37769C2.96401 6.71601 2.32916 7.26276 1.88362 7.9525C1.43809 8.64224 1.20075 9.44576 1.2 10.2669ZM6 6.00029H6.1002C6.43902 5.98568 6.77093 5.89967 7.07419 5.74788C7.37746 5.59609 7.64524 5.38195 7.86 5.11949L7.8654 5.11289L7.8762 5.09969L7.887 5.08589L7.8924 5.07929L7.9074 5.06009L7.92 5.04029C8.18473 4.68542 8.34614 4.26425 8.38639 3.82335C8.42663 3.38246 8.34413 2.93902 8.14802 2.5421C7.95191 2.14517 7.64983 1.81023 7.27519 1.57432C6.90055 1.3384 6.46795 1.21072 6.02526 1.20538C5.58256 1.20004 5.14701 1.31726 4.7668 1.54407C4.38658 1.77088 4.07651 2.09845 3.87088 2.49053C3.66526 2.88261 3.57209 3.32392 3.60169 3.76566C3.63129 4.2074 3.7825 4.63234 4.0386 4.99349L4.0416 4.99769L4.053 5.01329L4.0578 5.01989L4.0716 5.03909L4.08 5.04029L4.0926 5.05709L4.0956 5.06129L4.11 5.07989L4.1148 5.08589L4.128 5.10029L4.1334 5.10749L4.1442 5.12069L4.1514 5.12909L4.1604 5.13989L4.1742 5.15609L4.1772 5.15969C4.38704 5.4043 4.64387 5.60427 4.93246 5.74774C5.22105 5.89121 5.53551 5.97525 5.8572 5.99489H5.88H5.9058H5.9088L6 6.00029Z" fill="#E19E00"/>
</svg>
